CD_DA

CD_TEXT {
  LANGUAGE_MAP {
    0: 9
  }
  LANGUAGE 0 {
    TITLE "Manipulated"
    PERFORMER "Twenty-Six Other-Worlds"
    RESERVED4 "Mastered using SADiE v5.4.1"
    SIZE_INFO { 0,  1,  4,  0,  7, 10,  0,  0,  0,  0,  0,  0,
                0,  0,  0,  0,  0,  3,  0,  3, 22,  0,  0,  0,
                0,  0,  0,  0,  9,  0,  0,  0,  0,  0,  0,  0}
  }
}

// Track 1
TRACK AUDIO
NO COPY
NO PRE_EMPHASIS
TWO_CHANNEL_AUDIO
ISRC "400000000000"
CD_TEXT {
  LANGUAGE 0 {
    TITLE "When Beauty Danced"
    PERFORMER "Twenty-Six Other-Worlds"
    RESERVED4 ""
  }
}
FILE "/Users/Toni/Music/arccd/00022/00022.bin" 0 07:27:40


// Track 2
TRACK AUDIO
NO COPY
NO PRE_EMPHASIS
TWO_CHANNEL_AUDIO
CD_TEXT {
  LANGUAGE 0 {
    TITLE "Incubus"
    PERFORMER "Twenty-Six Other-Worlds"
    RESERVED4 ""
  }
}
FILE "/Users/Toni/Music/arccd/00022/00022.bin" 07:27:40 08:10:55


// Track 3
TRACK AUDIO
NO COPY
NO PRE_EMPHASIS
TWO_CHANNEL_AUDIO
CD_TEXT {
  LANGUAGE 0 {
    TITLE " As I Call On The Dark"
    PERFORMER "Twenty-Six Other-Worlds"
    RESERVED4 ""
  }
}
FILE "/Users/Toni/Music/arccd/00022/00022.bin" 15:38:20 11:07:13


// Track 4
TRACK AUDIO
NO COPY
NO PRE_EMPHASIS
TWO_CHANNEL_AUDIO
CD_TEXT {
  LANGUAGE 0 {
    TITLE "Lady Deadly"
    PERFORMER "Twenty-Six Other-Worlds"
    RESERVED4 ""
  }
}
FILE "/Users/Toni/Music/arccd/00022/00022.bin" 26:45:33 08:37:58

